<?xml version="1.0" encoding="UTF-8" standalone="no"?><svg xmlns="http://www.w3.org/2000/svg" xmlns:xlink="http://www.w3.org/1999/xlink" contentScriptType="application/ecmascript" contentStyleType="text/css" height="1108px" preserveAspectRatio="none" style="width:548px;height:1108px;" version="1.1" viewBox="0 0 548 1108" width="548px" zoomAndPan="magnify"><defs><filter height="300%" id="f17njn2ajjbkq1" width="300%" x="-1" y="-1"><feGaussianBlur result="blurOut" stdDeviation="2.0"/><feColorMatrix in="blurOut" result="blurOut2" type="matrix" values="0 0 0 0 0 0 0 0 0 0 0 0 0 0 0 0 0 0 .4 0"/><feOffset dx="4.0" dy="4.0" in="blurOut2" result="blurOut3"/><feBlend in="SourceGraphic" in2="blurOut3" mode="normal"/></filter></defs><g><ellipse cx="381.5" cy="20" fill="#000000" filter="url(#f17njn2ajjbkq1)" rx="10" ry="10" style="stroke:none;stroke-width:1.0;"/><rect fill="#FEFECE" filter="url(#f17njn2ajjbkq1)" height="35.0938" rx="12.5" ry="12.5" style="stroke:#A80036;stroke-width:1.5;" width="49" x="357" y="50"/><text fill="#000000" font-family="sans-serif" font-size="12" lengthAdjust="spacing" textLength="29" x="367" y="72.457">app()</text><rect fill="#FEFECE" filter="url(#f17njn2ajjbkq1)" height="35.0938" rx="12.5" ry="12.5" style="stroke:#A80036;stroke-width:1.5;" width="152" x="305.5" y="105.0938"/><text fill="#000000" font-family="sans-serif" font-size="12" lengthAdjust="spacing" textLength="132" x="315.5" y="127.5508">new ParameterValidator</text><polygon fill="#FEFECE" filter="url(#f17njn2ajjbkq1)" points="312,160.1875,451,160.1875,463,172.1875,451,184.1875,312,184.1875,300,172.1875,312,160.1875" style="stroke:#A80036;stroke-width:1.5;"/><text fill="#000000" font-family="sans-serif" font-size="11" lengthAdjust="spacing" textLength="139" x="312" y="176.6885">ParameterValidator.is_valid()</text><text fill="#000000" font-family="sans-serif" font-size="11" lengthAdjust="spacing" textLength="18" x="282" y="169.7705">yes</text><text fill="#000000" font-family="sans-serif" font-size="11" lengthAdjust="spacing" textLength="12" x="463" y="169.7705">no</text><rect fill="#FEFECE" filter="url(#f17njn2ajjbkq1)" height="35.0938" rx="12.5" ry="12.5" style="stroke:#A80036;stroke-width:1.5;" width="114" x="188" y="194.1875"/><text fill="#000000" font-family="sans-serif" font-size="12" lengthAdjust="spacing" textLength="94" x="198" y="216.6445">new AppExecutor</text><rect fill="#FEFECE" filter="url(#f17njn2ajjbkq1)" height="35.0938" rx="12.5" ry="12.5" style="stroke:#A80036;stroke-width:1.5;" width="117" x="186.5" y="249.2813"/><text fill="#000000" font-family="sans-serif" font-size="12" lengthAdjust="spacing" textLength="97" x="196.5" y="271.7383">AppExecutor.run()</text><polygon fill="#FEFECE" filter="url(#f17njn2ajjbkq1)" points="32,304.375,96,304.375,108,316.375,96,328.375,32,328.375,20,316.375,32,304.375" style="stroke:#A80036;stroke-width:1.5;"/><text fill="#000000" font-family="sans-serif" font-size="11" lengthAdjust="spacing" textLength="64" x="32" y="320.876">is_help_call()</text><rect fill="#98FB98" filter="url(#f17njn2ajjbkq1)" height="35.0938" rx="12.5" ry="12.5" style="stroke:#A80036;stroke-width:1.5;" width="98" x="15" y="348.375"/><text fill="#000000" font-family="sans-serif" font-size="12" lengthAdjust="spacing" textLength="78" x="25" y="370.832">display_help()</text><ellipse cx="64" cy="429.4688" fill="#FFFFFF" filter="url(#f17njn2ajjbkq1)" rx="11" ry="11" style="stroke:#000000;stroke-width:1.0;"/><ellipse cx="64" cy="429.4688" fill="#000000" rx="6" ry="6" style="stroke:#7F7F7F;stroke-width:1.0;"/><polygon fill="#FEFECE" filter="url(#f17njn2ajjbkq1)" points="145,304.375,225,304.375,237,316.375,225,328.375,145,328.375,133,316.375,145,304.375" style="stroke:#A80036;stroke-width:1.5;"/><text fill="#000000" font-family="sans-serif" font-size="11" lengthAdjust="spacing" textLength="80" x="145" y="320.876">is_version_call()</text><rect fill="#98FB98" filter="url(#f17njn2ajjbkq1)" height="35.0938" rx="12.5" ry="12.5" style="stroke:#A80036;stroke-width:1.5;" width="87" x="141.5" y="348.375"/><text fill="#000000" font-family="sans-serif" font-size="12" lengthAdjust="spacing" textLength="67" x="151.5" y="370.832">print version</text><ellipse cx="185" cy="429.4688" fill="#FFFFFF" filter="url(#f17njn2ajjbkq1)" rx="11" ry="11" style="stroke:#000000;stroke-width:1.0;"/><ellipse cx="185" cy="429.4688" fill="#000000" rx="6" ry="6" style="stroke:#7F7F7F;stroke-width:1.0;"/><polygon fill="#FEFECE" filter="url(#f17njn2ajjbkq1)" points="269,304.375,351,304.375,363,316.375,351,328.375,269,328.375,257,316.375,269,304.375" style="stroke:#A80036;stroke-width:1.5;"/><text fill="#000000" font-family="sans-serif" font-size="11" lengthAdjust="spacing" textLength="82" x="269" y="320.876">is_dry_run_call()</text><rect fill="#FEFECE" filter="url(#f17njn2ajjbkq1)" height="35.0938" rx="12.5" ry="12.5" style="stroke:#A80036;stroke-width:1.5;" width="69" x="275.5" y="348.375"/><text fill="#000000" font-family="sans-serif" font-size="12" lengthAdjust="spacing" textLength="49" x="285.5" y="370.832">run_dry()</text><rect fill="#FEFECE" filter="url(#f17njn2ajjbkq1)" height="35.0938" rx="12.5" ry="12.5" style="stroke:#A80036;stroke-width:1.5;" width="92" x="383" y="379.875"/><text fill="#000000" font-family="sans-serif" font-size="12" lengthAdjust="spacing" textLength="72" x="393" y="402.332">run_normal()</text><rect fill="#FEFECE" filter="url(#f17njn2ajjbkq1)" height="35.0938" rx="12.5" ry="12.5" style="stroke:#A80036;stroke-width:1.5;" width="159" x="165.5" y="480.4688"/><text fill="#000000" font-family="sans-serif" font-size="12" lengthAdjust="spacing" textLength="139" x="175.5" y="502.9258">new ApplicationSubmitter</text><rect fill="#FEFECE" filter="url(#f17njn2ajjbkq1)" height="35.0938" rx="12.5" ry="12.5" style="stroke:#A80036;stroke-width:1.5;" width="165" x="162.5" y="535.5625"/><text fill="#000000" font-family="sans-serif" font-size="12" lengthAdjust="spacing" textLength="145" x="172.5" y="558.0195">display_begin_message()</text><rect fill="#FEFECE" filter="url(#f17njn2ajjbkq1)" height="35.0938" rx="12.5" ry="12.5" style="stroke:#A80036;stroke-width:1.5;" width="129" x="180.5" y="590.6563"/><text fill="#000000" font-family="sans-serif" font-size="12" lengthAdjust="spacing" textLength="109" x="190.5" y="613.1133">handle_pre_steps()</text><rect fill="#FEFECE" filter="url(#f17njn2ajjbkq1)" height="35.0938" rx="12.5" ry="12.5" style="stroke:#A80036;stroke-width:1.5;" width="123" x="183.5" y="645.75"/><text fill="#000000" font-family="sans-serif" font-size="12" lengthAdjust="spacing" textLength="103" x="193.5" y="668.207">visit_home_page()</text><rect fill="#FEFECE" filter="url(#f17njn2ajjbkq1)" height="35.0938" rx="12.5" ry="12.5" style="stroke:#A80036;stroke-width:1.5;" width="154" x="168" y="700.8438"/><text fill="#000000" font-family="sans-serif" font-size="12" lengthAdjust="spacing" textLength="134" x="178" y="723.3008">go_to_english_version()</text><rect fill="#FEFECE" filter="url(#f17njn2ajjbkq1)" height="35.0938" rx="12.5" ry="12.5" style="stroke:#A80036;stroke-width:1.5;" width="161" x="164.5" y="755.9375"/><text fill="#000000" font-family="sans-serif" font-size="12" lengthAdjust="spacing" textLength="141" x="174.5" y="778.3945">go_to_application_page()</text><rect fill="#FEFECE" filter="url(#f17njn2ajjbkq1)" height="35.0938" rx="12.5" ry="12.5" style="stroke:#A80036;stroke-width:1.5;" width="143" x="173.5" y="859.9492"/><text fill="#000000" font-family="sans-serif" font-size="12" lengthAdjust="spacing" textLength="123" x="183.5" y="882.4063">submit_search_form()</text><polygon fill="#FEFECE" filter="url(#f17njn2ajjbkq1)" points="200,811.0313,290,811.0313,302,823.0313,290,835.0313,200,835.0313,188,823.0313,200,811.0313" style="stroke:#A80036;stroke-width:1.5;"/><text fill="#000000" font-family="sans-serif" font-size="11" lengthAdjust="spacing" textLength="12" x="249" y="846.4502">no</text><text fill="#000000" font-family="sans-serif" font-size="11" lengthAdjust="spacing" textLength="90" x="200" y="827.5322">dry_run_enabled()</text><text fill="#000000" font-family="sans-serif" font-size="11" lengthAdjust="spacing" textLength="18" x="302" y="820.6143">yes</text><polygon fill="#FEFECE" filter="url(#f17njn2ajjbkq1)" points="245,915.043,257,927.043,245,939.043,233,927.043,245,915.043" style="stroke:#A80036;stroke-width:1.5;"/><rect fill="#FEFECE" filter="url(#f17njn2ajjbkq1)" height="35.0938" rx="12.5" ry="12.5" style="stroke:#A80036;stroke-width:1.5;" width="135" x="177.5" y="959.043"/><text fill="#000000" font-family="sans-serif" font-size="12" lengthAdjust="spacing" textLength="115" x="187.5" y="981.5">handle_post_steps()</text><rect fill="#98FB98" filter="url(#f17njn2ajjbkq1)" height="35.0938" rx="12.5" ry="12.5" style="stroke:#A80036;stroke-width:1.5;" width="67" x="211.5" y="1014.1367"/><text fill="#000000" font-family="sans-serif" font-size="12" lengthAdjust="spacing" textLength="47" x="221.5" y="1036.5938">success</text><rect fill="#FFC0CB" filter="url(#f17njn2ajjbkq1)" height="35.0938" rx="12.5" ry="12.5" style="stroke:#A80036;stroke-width:1.5;" width="46" x="485" y="194.1875"/><text fill="#000000" font-family="sans-serif" font-size="12" lengthAdjust="spacing" textLength="26" x="495" y="216.6445">error</text><ellipse cx="508" cy="260.2813" fill="#FFFFFF" filter="url(#f17njn2ajjbkq1)" rx="11" ry="11" style="stroke:#000000;stroke-width:1.0;"/><ellipse cx="508" cy="260.2813" fill="#000000" rx="6" ry="6" style="stroke:#7F7F7F;stroke-width:1.0;"/><ellipse cx="381.5" cy="1080.2305" fill="#FFFFFF" filter="url(#f17njn2ajjbkq1)" rx="11" ry="11" style="stroke:#000000;stroke-width:1.0;"/><ellipse cx="381.5" cy="1080.2305" fill="#000000" rx="6" ry="6" style="stroke:#7F7F7F;stroke-width:1.0;"/><line style="stroke:#A80036;stroke-width:1.5;" x1="381.5" x2="381.5" y1="30" y2="50"/><polygon fill="#A80036" points="377.5,40,381.5,50,385.5,40,381.5,44" style="stroke:#A80036;stroke-width:1.0;"/><line style="stroke:#A80036;stroke-width:1.5;" x1="381.5" x2="381.5" y1="85.0938" y2="105.0938"/><polygon fill="#A80036" points="377.5,95.0938,381.5,105.0938,385.5,95.0938,381.5,99.0938" style="stroke:#A80036;stroke-width:1.0;"/><line style="stroke:#A80036;stroke-width:1.5;" x1="245" x2="245" y1="229.2813" y2="249.2813"/><polygon fill="#A80036" points="241,239.2813,245,249.2813,249,239.2813,245,243.2813" style="stroke:#A80036;stroke-width:1.0;"/><line style="stroke:#A80036;stroke-width:1.5;" x1="64" x2="64" y1="383.4688" y2="418.4688"/><polygon fill="#A80036" points="60,408.4688,64,418.4688,68,408.4688,64,412.4688" style="stroke:#A80036;stroke-width:1.0;"/><line style="stroke:#A80036;stroke-width:1.5;" x1="185" x2="185" y1="383.4688" y2="418.4688"/><polygon fill="#A80036" points="181,408.4688,185,418.4688,189,408.4688,185,412.4688" style="stroke:#A80036;stroke-width:1.0;"/><line style="stroke:#A80036;stroke-width:1.5;" x1="64" x2="64" y1="328.375" y2="348.375"/><polygon fill="#A80036" points="60,338.375,64,348.375,68,338.375,64,342.375" style="stroke:#A80036;stroke-width:1.0;"/><line style="stroke:#A80036;stroke-width:1.5;" x1="185" x2="185" y1="328.375" y2="348.375"/><polygon fill="#A80036" points="181,338.375,185,348.375,189,338.375,185,342.375" style="stroke:#A80036;stroke-width:1.0;"/><line style="stroke:#A80036;stroke-width:1.5;" x1="310" x2="310" y1="328.375" y2="348.375"/><polygon fill="#A80036" points="306,338.375,310,348.375,314,338.375,310,342.375" style="stroke:#A80036;stroke-width:1.0;"/><line style="stroke:#A80036;stroke-width:1.5;" x1="310" x2="310" y1="383.4688" y2="460.4688"/><polygon fill="#A80036" points="306,450.4688,310,460.4688,314,450.4688,310,454.4688" style="stroke:#A80036;stroke-width:1.0;"/><line style="stroke:#A80036;stroke-width:1.5;" x1="108" x2="133" y1="316.375" y2="316.375"/><polygon fill="#A80036" points="123,312.375,133,316.375,123,320.375,127,316.375" style="stroke:#A80036;stroke-width:1.0;"/><line style="stroke:#A80036;stroke-width:1.5;" x1="237" x2="257" y1="316.375" y2="316.375"/><polygon fill="#A80036" points="247,312.375,257,316.375,247,320.375,251,316.375" style="stroke:#A80036;stroke-width:1.0;"/><line style="stroke:#A80036;stroke-width:1.5;" x1="245" x2="245" y1="284.375" y2="289.375"/><line style="stroke:#A80036;stroke-width:1.5;" x1="245" x2="64" y1="289.375" y2="289.375"/><line style="stroke:#A80036;stroke-width:1.5;" x1="64" x2="64" y1="289.375" y2="304.375"/><polygon fill="#A80036" points="60,294.375,64,304.375,68,294.375,64,298.375" style="stroke:#A80036;stroke-width:1.0;"/><line style="stroke:#A80036;stroke-width:1.5;" x1="363" x2="429" y1="316.375" y2="316.375"/><line style="stroke:#A80036;stroke-width:1.5;" x1="429" x2="429" y1="316.375" y2="379.875"/><polygon fill="#A80036" points="425,369.875,429,379.875,433,369.875,429,373.875" style="stroke:#A80036;stroke-width:1.0;"/><line style="stroke:#A80036;stroke-width:1.5;" x1="429" x2="429" y1="414.9688" y2="460.4688"/><polygon fill="#A80036" points="425,450.4688,429,460.4688,433,450.4688,429,454.4688" style="stroke:#A80036;stroke-width:1.0;"/><line style="stroke:#A80036;stroke-width:1.5;" x1="245" x2="429" y1="460.4688" y2="460.4688"/><line style="stroke:#A80036;stroke-width:1.5;" x1="245" x2="245" y1="460.4688" y2="480.4688"/><polygon fill="#A80036" points="241,470.4688,245,480.4688,249,470.4688,245,474.4688" style="stroke:#A80036;stroke-width:1.0;"/><line style="stroke:#A80036;stroke-width:1.5;" x1="245" x2="245" y1="515.5625" y2="535.5625"/><polygon fill="#A80036" points="241,525.5625,245,535.5625,249,525.5625,245,529.5625" style="stroke:#A80036;stroke-width:1.0;"/><line style="stroke:#A80036;stroke-width:1.5;" x1="245" x2="245" y1="570.6563" y2="590.6563"/><polygon fill="#A80036" points="241,580.6563,245,590.6563,249,580.6563,245,584.6563" style="stroke:#A80036;stroke-width:1.0;"/><line style="stroke:#A80036;stroke-width:1.5;" x1="245" x2="245" y1="625.75" y2="645.75"/><polygon fill="#A80036" points="241,635.75,245,645.75,249,635.75,245,639.75" style="stroke:#A80036;stroke-width:1.0;"/><line style="stroke:#A80036;stroke-width:1.5;" x1="245" x2="245" y1="680.8438" y2="700.8438"/><polygon fill="#A80036" points="241,690.8438,245,700.8438,249,690.8438,245,694.8438" style="stroke:#A80036;stroke-width:1.0;"/><line style="stroke:#A80036;stroke-width:1.5;" x1="245" x2="245" y1="735.9375" y2="755.9375"/><polygon fill="#A80036" points="241,745.9375,245,755.9375,249,745.9375,245,749.9375" style="stroke:#A80036;stroke-width:1.0;"/><line style="stroke:#A80036;stroke-width:1.5;" x1="245" x2="245" y1="835.0313" y2="859.9492"/><polygon fill="#A80036" points="241,849.9492,245,859.9492,249,849.9492,245,853.9492" style="stroke:#A80036;stroke-width:1.0;"/><line style="stroke:#A80036;stroke-width:1.5;" x1="302" x2="326.5" y1="823.0313" y2="823.0313"/><polygon fill="#A80036" points="322.5,867.4961,326.5,877.4961,330.5,867.4961,326.5,871.4961" style="stroke:#A80036;stroke-width:1.5;"/><line style="stroke:#A80036;stroke-width:1.5;" x1="326.5" x2="326.5" y1="823.0313" y2="927.043"/><line style="stroke:#A80036;stroke-width:1.5;" x1="326.5" x2="257" y1="927.043" y2="927.043"/><polygon fill="#A80036" points="267,923.043,257,927.043,267,931.043,263,927.043" style="stroke:#A80036;stroke-width:1.0;"/><line style="stroke:#A80036;stroke-width:1.5;" x1="245" x2="245" y1="895.043" y2="915.043"/><polygon fill="#A80036" points="241,905.043,245,915.043,249,905.043,245,909.043" style="stroke:#A80036;stroke-width:1.0;"/><line style="stroke:#A80036;stroke-width:1.5;" x1="245" x2="245" y1="791.0313" y2="811.0313"/><polygon fill="#A80036" points="241,801.0313,245,811.0313,249,801.0313,245,805.0313" style="stroke:#A80036;stroke-width:1.0;"/><line style="stroke:#A80036;stroke-width:1.5;" x1="245" x2="245" y1="939.043" y2="959.043"/><polygon fill="#A80036" points="241,949.043,245,959.043,249,949.043,245,953.043" style="stroke:#A80036;stroke-width:1.0;"/><line style="stroke:#A80036;stroke-width:1.5;" x1="245" x2="245" y1="994.1367" y2="1014.1367"/><polygon fill="#A80036" points="241,1004.1367,245,1014.1367,249,1004.1367,245,1008.1367" style="stroke:#A80036;stroke-width:1.0;"/><line style="stroke:#A80036;stroke-width:1.5;" x1="508" x2="508" y1="229.2813" y2="249.2813"/><polygon fill="#A80036" points="504,239.2813,508,249.2813,512,239.2813,508,243.2813" style="stroke:#A80036;stroke-width:1.0;"/><line style="stroke:#A80036;stroke-width:1.5;" x1="300" x2="245" y1="172.1875" y2="172.1875"/><line style="stroke:#A80036;stroke-width:1.5;" x1="245" x2="245" y1="172.1875" y2="194.1875"/><polygon fill="#A80036" points="241,184.1875,245,194.1875,249,184.1875,245,188.1875" style="stroke:#A80036;stroke-width:1.0;"/><line style="stroke:#A80036;stroke-width:1.5;" x1="463" x2="508" y1="172.1875" y2="172.1875"/><line style="stroke:#A80036;stroke-width:1.5;" x1="508" x2="508" y1="172.1875" y2="194.1875"/><polygon fill="#A80036" points="504,184.1875,508,194.1875,512,184.1875,508,188.1875" style="stroke:#A80036;stroke-width:1.0;"/><line style="stroke:#A80036;stroke-width:1.5;" x1="245" x2="245" y1="1049.2305" y2="1054.2305"/><line style="stroke:#A80036;stroke-width:1.5;" x1="245" x2="381.5" y1="1054.2305" y2="1054.2305"/><line style="stroke:#A80036;stroke-width:1.5;" x1="381.5" x2="381.5" y1="1054.2305" y2="1069.2305"/><polygon fill="#A80036" points="377.5,1059.2305,381.5,1069.2305,385.5,1059.2305,381.5,1063.2305" style="stroke:#A80036;stroke-width:1.0;"/><line style="stroke:#A80036;stroke-width:1.5;" x1="381.5" x2="381.5" y1="140.1875" y2="160.1875"/><polygon fill="#A80036" points="377.5,150.1875,381.5,160.1875,385.5,150.1875,381.5,154.1875" style="stroke:#A80036;stroke-width:1.0;"/><!--MD5=[006c8e52ba134745a54b7adb14c679c9]
@startuml
'https://plantuml.com/activity-diagram-beta
start
:app();
:new ParameterValidator;
if (ParameterValidator.is_valid()) then (yes)
  :new AppExecutor;
  :AppExecutor.run();
  if (is_help_call())
    #palegreen:display_help();
    stop
  elseif (is_version_call())
    #palegreen:print version;
    stop
  elseif (is_dry_run_call())
    :run_dry();
  else
    :run_normal();
  endif
  :new ApplicationSubmitter;
  :display_begin_message();
  :handle_pre_steps();
  :visit_home_page();
  :go_to_english_version();
  :go_to_application_page();
  if (dry_run_enabled()) then (yes)
  else (no)
    :submit_search_form();
  endif
  :handle_post_steps();
  #palegreen:success;
else (no)
  #pink:error;
  stop
endif
stop
@enduml

@startuml
start
:app();
:new ParameterValidator;
if (ParameterValidator.is_valid()) then (yes)
  :new AppExecutor;
  :AppExecutor.run();
  if (is_help_call())
    #palegreen:display_help();
    stop
  elseif (is_version_call())
    #palegreen:print version;
    stop
  elseif (is_dry_run_call())
    :run_dry();
  else
    :run_normal();
  endif
  :new ApplicationSubmitter;
  :display_begin_message();
  :handle_pre_steps();
  :visit_home_page();
  :go_to_english_version();
  :go_to_application_page();
  if (dry_run_enabled()) then (yes)
  else (no)
    :submit_search_form();
  endif
  :handle_post_steps();
  #palegreen:success;
else (no)
  #pink:error;
  stop
endif
stop
@enduml

PlantUML version 1.2021.00(Sun Jan 10 11:25:05 CET 2021)
(GPL source distribution)
Java Runtime: OpenJDK Runtime Environment
JVM: OpenJDK 64-Bit Server VM
Default Encoding: Cp1252
Language: en
Country: US
--></g></svg>