<?xml version="1.0" encoding="UTF-8" standalone="no"?><svg xmlns="http://www.w3.org/2000/svg" xmlns:xlink="http://www.w3.org/1999/xlink" contentScriptType="application/ecmascript" contentStyleType="text/css" height="189px" preserveAspectRatio="none" style="width:492px;height:189px;" version="1.1" viewBox="0 0 492 189" width="492px" zoomAndPan="magnify"><defs><filter height="300%" id="f1jerjndcdib72" width="300%" x="-1" y="-1"><feGaussianBlur result="blurOut" stdDeviation="2.0"/><feColorMatrix in="blurOut" result="blurOut2" type="matrix" values="0 0 0 0 0 0 0 0 0 0 0 0 0 0 0 0 0 0 .4 0"/><feOffset dx="4.0" dy="4.0" in="blurOut2" result="blurOut3"/><feBlend in="SourceGraphic" in2="blurOut3" mode="normal"/></filter></defs><g><ellipse cx="45.2472" cy="149.5497" fill="#FEFECE" filter="url(#f1jerjndcdib72)" rx="39.2472" ry="27.5497" style="stroke:#A80036;stroke-width:1.5;"/><text fill="#000000" font-family="sans-serif" font-size="14" font-style="italic" lengthAdjust="spacing" textLength="44" x="21.2472" y="145.2616">«core»</text><text fill="#000000" font-family="sans-serif" font-size="14" lengthAdjust="spacing" textLength="40" x="23.2472" y="162.8709">Pages</text><ellipse cx="99.1223" cy="34.1626" fill="#FEFECE" filter="url(#f1jerjndcdib72)" rx="61.1223" ry="27.6626" style="stroke:#A80036;stroke-width:1.5;"/><text fill="#000000" font-family="sans-serif" font-size="14" font-style="italic" lengthAdjust="spacing" textLength="83" x="57.6223" y="31.0049">«supporting»</text><text fill="#000000" font-family="sans-serif" font-size="14" lengthAdjust="spacing" textLength="59" x="69.6223" y="48.6142">Factories</text><ellipse cx="246.754" cy="34.2034" fill="#FEFECE" filter="url(#f1jerjndcdib72)" rx="51.754" ry="26.2034" style="stroke:#A80036;stroke-width:1.5;"/><text fill="#000000" font-family="sans-serif" font-size="14" font-style="italic" lengthAdjust="spacing" textLength="44" x="220.0562" y="28.8976">«core»</text><text fill="#000000" font-family="sans-serif" font-size="14" lengthAdjust="spacing" textLength="62" x="211.0562" y="46.507">Executors</text><ellipse cx="235.1934" cy="149.6387" fill="#FEFECE" filter="url(#f1jerjndcdib72)" rx="116.1934" ry="25.6387" style="stroke:#A80036;stroke-width:1.5;"/><text fill="#000000" font-family="sans-serif" font-size="14" font-style="italic" lengthAdjust="spacing" textLength="44" x="207.0592" y="141.8198">«core»</text><text fill="#000000" font-family="sans-serif" font-size="14" lengthAdjust="spacing" textLength="171" x="143.5592" y="159.4292">Configuration Management</text><ellipse cx="419.2148" cy="33.914" fill="#FEFECE" filter="url(#f1jerjndcdib72)" rx="61.7148" ry="27.914" style="stroke:#A80036;stroke-width:1.5;"/><text fill="#000000" font-family="sans-serif" font-size="14" font-style="italic" lengthAdjust="spacing" textLength="83" x="377.7148" y="30.399">«supporting»</text><text fill="#000000" font-family="sans-serif" font-size="14" lengthAdjust="spacing" textLength="63" x="387.7148" y="48.0084">Validators</text><ellipse cx="431.2217" cy="149.6031" fill="#FEFECE" filter="url(#f1jerjndcdib72)" rx="45.2217" ry="26.6031" style="stroke:#A80036;stroke-width:1.5;"/><text fill="#000000" font-family="sans-serif" font-size="14" font-style="italic" lengthAdjust="spacing" textLength="63" x="399.7217" y="147.9957">«generic»</text><text fill="#000000" font-family="sans-serif" font-size="14" lengthAdjust="spacing" textLength="26" x="418.2217" y="165.6051">Utils</text><!--MD5=[899ba34a0e7c1b5bb6029cf0094678aa]
link VL to UT--><path d="M421.87,62.19 C423.63,78.83 425.89,100.17 427.72,117.48 " fill="none" id="VL-to-UT" style="stroke:#A80036;stroke-width:1.0;"/><polygon fill="#A80036" points="428.27,122.71,431.296,113.3375,427.7414,117.738,423.3409,114.1833,428.27,122.71" style="stroke:#A80036;stroke-width:1.0;"/><!--MD5=[59e2b6007845f3d6635fa8d595dfde24]
link CM to UT--><path d="M351.38,149.5 C361.18,149.5 370.98,149.5 380.78,149.5 " fill="none" id="CM-to-UT" style="stroke:#A80036;stroke-width:1.0;"/><polygon fill="#A80036" points="385.9,149.5,376.9,145.5,380.9,149.5,376.9,153.5,385.9,149.5" style="stroke:#A80036;stroke-width:1.0;"/><!--MD5=[51d13ee0c6d262a9725fa7f98dbc0299]
link EX to VL--><path d="M299.07,34 C316.62,34 334.17,34 351.72,34 " fill="none" id="EX-to-VL" style="stroke:#A80036;stroke-width:1.0;"/><polygon fill="#A80036" points="357.16,34,348.16,30,352.16,34,348.16,38,357.16,34" style="stroke:#A80036;stroke-width:1.0;"/><!--MD5=[945d054adf6f03651a0d3f07c6d55e75]
link EX to CM--><path d="M244.34,60.19 C242.51,77.5 240.07,100.56 238.14,118.77 " fill="none" id="EX-to-CM" style="stroke:#A80036;stroke-width:1.0;"/><polygon fill="#A80036" points="237.61,123.77,242.5149,115.2294,238.1245,118.7965,234.5573,114.4062,237.61,123.77" style="stroke:#A80036;stroke-width:1.0;"/><!--MD5=[31ced2bfe78be19199ca84fc5dfabc39]
reverse link FT to EX--><path d="M165.41,34 C175.22,34 185.03,34 194.83,34 " fill="none" id="FT-backto-EX" style="stroke:#A80036;stroke-width:1.0;"/><polygon fill="#A80036" points="160.28,34,169.28,38,165.28,34,169.28,30,160.28,34" style="stroke:#A80036;stroke-width:1.0;"/><!--MD5=[538ace66c5672338a2e50795e153a6d0]
link PG to CM--><path d="M84.34,149.5 C94.11,149.5 103.88,149.5 113.65,149.5 " fill="none" id="PG-to-CM" style="stroke:#A80036;stroke-width:1.0;"/><polygon fill="#A80036" points="118.77,149.5,109.7815,145.4743,113.77,149.4857,109.7586,153.4743,118.77,149.5" style="stroke:#A80036;stroke-width:1.0;"/><!--MD5=[d57c37b69f7d7d30069a0a68d89c9708]
link EX to PG--><path d="M213.19,54 C176.06,74.86 116.77,108.17 79.41,129.17 " fill="none" id="EX-to-PG" style="stroke:#A80036;stroke-width:1.0;"/><polygon fill="#A80036" points="74.96,131.66,84.7642,130.7233,79.3152,129.2039,80.8345,123.7549,74.96,131.66" style="stroke:#A80036;stroke-width:1.0;"/><!--MD5=[5ffe9dcf4bdb93e60799f40e782238a5]
link FT to CM--><path d="M127.18,58.52 C149.1,76.81 179.54,102.21 202.48,121.36 " fill="none" id="FT-to-CM" style="stroke:#A80036;stroke-width:1.0;"/><polygon fill="#A80036" points="206.39,124.62,202.0497,115.7791,202.5536,121.4134,196.9192,121.9173,206.39,124.62" style="stroke:#A80036;stroke-width:1.0;"/><!--MD5=[acafd004e4d5fe48e24e0eab47d04f12]
@startuml
'https://plantuml.com/use-case-diagram

(Pages) as (PG) << core >>
(Factories) as (FT) << supporting >>
(Executors) as (EX) << core >>
(Configuration Management) as (CM) << core >>
(Validators) as (VL) << supporting >>
(Utils) as (UT) << generic >>

(VL) -down-> (UT)
(CM) -right-> (UT)
(EX) -right-> (VL)
(EX) -down-> (CM)
(EX) -left-> (FT)
(PG) -right-> (CM)
(EX) -down-> (PG)
(FT) -down-> (CM)

@enduml

@startuml

(Pages) as (PG) << core >>
(Factories) as (FT) << supporting >>
(Executors) as (EX) << core >>
(Configuration Management) as (CM) << core >>
(Validators) as (VL) << supporting >>
(Utils) as (UT) << generic >>

(VL) -down-> (UT)
(CM) -right-> (UT)
(EX) -right-> (VL)
(EX) -down-> (CM)
(EX) -left-> (FT)
(PG) -right-> (CM)
(EX) -down-> (PG)
(FT) -down-> (CM)

@enduml

PlantUML version 1.2021.00(Sun Jan 10 11:25:05 CET 2021)
(GPL source distribution)
Java Runtime: OpenJDK Runtime Environment
JVM: OpenJDK 64-Bit Server VM
Default Encoding: Cp1252
Language: en
Country: US
--></g></svg>